<svg width="18" height="24" viewBox="0 0 18 24" fill="none" xmlns="http://www.w3.org/2000/svg">
<path d="M17.7188 10.1321V21.8625H16.2783V10.1321H17.7188Z" fill="#ECB047" stroke="#ECB047" style="fill:#ECB047;fill:color(display-p3 0.9255 0.6902 0.2784);fill-opacity:1;stroke:#ECB047;stroke:color(display-p3 0.9255 0.6902 0.2784);stroke-opacity:1;" stroke-width="0.3"/>
<path d="M16.5791 21.562V23.0103H15.1309V21.562H16.5791Z" fill="#ECB047" stroke="#ECB047" style="fill:#ECB047;fill:color(display-p3 0.9255 0.6902 0.2784);fill-opacity:1;stroke:#ECB047;stroke:color(display-p3 0.9255 0.6902 0.2784);stroke-opacity:1;" stroke-width="0.3"/>
<path d="M15.4309 22.7097V24.1501H2.56079V22.7097H15.4309Z" fill="#ECB047" stroke="#ECB047" style="fill:#ECB047;fill:color(display-p3 0.9255 0.6902 0.2784);fill-opacity:1;stroke:#ECB047;stroke:color(display-p3 0.9255 0.6902 0.2784);stroke-opacity:1;" stroke-width="0.3"/>
<path d="M14.2913 0.989502V2.43774H12.8508V0.989502H14.2913Z" fill="#ECB047" stroke="#ECB047" style="fill:#ECB047;fill:color(display-p3 0.9255 0.6902 0.2784);fill-opacity:1;stroke:#ECB047;stroke:color(display-p3 0.9255 0.6902 0.2784);stroke-opacity:1;" stroke-width="0.3"/>
<path d="M10.8633 12.4197V13.5671H12.0039V16.1472H10.8633V17.2947H9.72363V20.7224H8.27637V17.2947H7.13574V16.1472H5.98828V13.5671H7.13574V12.4197H10.8633ZM9.72363 14.7078H10.5635V13.8679H9.72363V14.7078Z" fill="#ECB047" stroke="#ECB047" style="fill:#ECB047;fill:color(display-p3 0.9255 0.6902 0.2784);fill-opacity:1;stroke:#ECB047;stroke:color(display-p3 0.9255 0.6902 0.2784);stroke-opacity:1;" stroke-width="0.3"/>
<path d="M13.1509 -0.150391V1.29004H4.84814V-0.150391H13.1509Z" fill="#ECB047" stroke="#ECB047" style="fill:#ECB047;fill:color(display-p3 0.9255 0.6902 0.2784);fill-opacity:1;stroke:#ECB047;stroke:color(display-p3 0.9255 0.6902 0.2784);stroke-opacity:1;" stroke-width="0.3"/>
<path d="M5.14868 0.989502V2.43774H3.70825V0.989502H5.14868Z" fill="#ECB047" stroke="#ECB047" style="fill:#ECB047;fill:color(display-p3 0.9255 0.6902 0.2784);fill-opacity:1;stroke:#ECB047;stroke:color(display-p3 0.9255 0.6902 0.2784);stroke-opacity:1;" stroke-width="0.3"/>
<path d="M4.00854 2.13721V8.99268H13.991V2.13721H15.4314V8.99268H16.5789V10.4321H1.42065V8.99268H2.56128V2.13721H4.00854Z" fill="#ECB047" stroke="#ECB047" style="fill:#ECB047;fill:color(display-p3 0.9255 0.6902 0.2784);fill-opacity:1;stroke:#ECB047;stroke:color(display-p3 0.9255 0.6902 0.2784);stroke-opacity:1;" stroke-width="0.3"/>
<path d="M2.86108 21.562V23.0103H1.42065V21.562H2.86108Z" fill="#ECB047" stroke="#ECB047" style="fill:#ECB047;fill:color(display-p3 0.9255 0.6902 0.2784);fill-opacity:1;stroke:#ECB047;stroke:color(display-p3 0.9255 0.6902 0.2784);stroke-opacity:1;" stroke-width="0.3"/>
<path d="M1.72119 10.1321V21.8625H0.280762V10.1321H1.72119Z" fill="#ECB047" stroke="#ECB047" style="fill:#ECB047;fill:color(display-p3 0.9255 0.6902 0.2784);fill-opacity:1;stroke:#ECB047;stroke:color(display-p3 0.9255 0.6902 0.2784);stroke-opacity:1;" stroke-width="0.3"/>
</svg>
