<svg width="10" height="18" viewBox="0 0 10 18" fill="none" xmlns="http://www.w3.org/2000/svg">
<path d="M6.67223 1.0106L6.66606 4.5465L6.65979 8.08241L6.36889 7.2616L6.36833 7.26003L5.99244 15.1319C6.36206 16.1757 6.56006 16.7329 6.56227 16.7351C6.56512 16.738 6.77584 16.7508 7.03033 16.7634C7.80146 16.8017 8.75713 16.8836 9.48208 16.9737C9.64993 16.9946 9.79436 17.0053 9.80312 16.9974C9.81179 16.9897 9.81649 13.3894 9.81363 8.99696L9.80828 1.0106H6.67223ZM1 1V8.99447C1 13.3915 1.00433 16.9933 1.00959 16.9985C1.01484 17.0038 1.28712 16.9781 1.61471 16.9414C1.94221 16.9047 2.39497 16.8591 2.6207 16.84C2.96691 16.8108 4.00055 16.7443 4.1202 16.7436C4.15504 16.7434 4.15725 16.5638 4.16232 13.3576L4.16767 9.97161L4.41774 10.6792L4.50622 10.9293L4.88202 3.05936L4.75288 2.69435C4.56 2.14881 4.36696 1.60332 4.17375 1.05789L4.15301 1H1Z" fill="#B1060F" stroke="#2E1819" style="fill:#B1060F;fill:color(display-p3 0.6941 0.0235 0.0588);fill-opacity:1;stroke:#2E1819;stroke:color(display-p3 0.1804 0.0941 0.0980);stroke-opacity:1;" stroke-width="0.272468"/>
<path d="M1 1V5.48751L4.16121 13.8732C4.16158 13.681 4.16195 13.5772 4.16232 13.3576L4.16767 9.97161L4.41774 10.6792C5.80994 14.6186 6.55784 16.7307 6.56227 16.7351C6.56512 16.738 6.77584 16.7508 7.03033 16.7634C7.80146 16.8017 8.75713 16.8836 9.48208 16.9737C9.64993 16.9946 9.79436 17.0053 9.80312 16.9974C9.80902 16.9921 9.81298 15.2268 9.814 12.7365L6.66753 3.69048L6.66605 4.5465L6.65979 8.08241L6.36888 7.2616C6.08462 6.45959 5.89483 5.92322 4.75288 2.69435C4.56 2.14881 4.36695 1.60332 4.17375 1.05789L4.15301 1H1Z" fill="url(#paint0_radial_3218_10565)" style=""/>
<path d="M1 1L4.16757 9.97567V9.97162L4.41764 10.6792C5.80985 14.6186 6.55775 16.7307 6.56218 16.7351C6.56503 16.7381 6.77574 16.7508 7.03024 16.7634C7.80137 16.8017 8.75703 16.8836 9.48199 16.9737C9.64901 16.9945 9.79261 17.0051 9.80275 16.9975L6.6596 8.08084V8.08241L6.3687 7.2616C6.08444 6.45959 5.89465 5.92322 4.7527 2.69435C4.44557 1.82607 4.185 1.08978 4.17357 1.05789L4.15283 1H1Z" fill="#E50914" style="fill:#E50914;fill:color(display-p3 0.8980 0.0353 0.0784);fill-opacity:1;"/>
<path d="M6.67223 1.0106L6.66606 4.5465L6.65979 8.08241L6.36889 7.2616L6.36833 7.26003L5.99244 15.1319C6.36206 16.1757 6.56006 16.7329 6.56227 16.7351C6.56512 16.738 6.77584 16.7508 7.03033 16.7634C7.80146 16.8017 8.75713 16.8836 9.48208 16.9737C9.64993 16.9946 9.79436 17.0053 9.80312 16.9974C9.81179 16.9897 9.81649 13.3894 9.81363 8.99696L9.80828 1.0106H6.67223ZM1 1V8.99447C1 13.3915 1.00433 16.9933 1.00959 16.9985C1.01484 17.0038 1.28712 16.9781 1.61471 16.9414C1.94221 16.9047 2.39497 16.8591 2.6207 16.84C2.96691 16.8108 4.00055 16.7443 4.1202 16.7436C4.15504 16.7434 4.15725 16.5638 4.16232 13.3576L4.16767 9.97161L4.41774 10.6792L4.50622 10.9293L4.88202 3.05936L4.75288 2.69435C4.56 2.14881 4.36696 1.60332 4.17375 1.05789L4.15301 1H1Z" fill="#B1060F" stroke="#2E1819" style="fill:#B1060F;fill:color(display-p3 0.6941 0.0235 0.0588);fill-opacity:1;stroke:#2E1819;stroke:color(display-p3 0.1804 0.0941 0.0980);stroke-opacity:1;" stroke-width="0.272468"/>
<path d="M1 1V5.48751L4.16121 13.8732C4.16158 13.681 4.16195 13.5772 4.16232 13.3576L4.16767 9.97161L4.41774 10.6792C5.80994 14.6186 6.55784 16.7307 6.56227 16.7351C6.56512 16.738 6.77584 16.7508 7.03033 16.7634C7.80146 16.8017 8.75713 16.8836 9.48208 16.9737C9.64993 16.9946 9.79436 17.0053 9.80312 16.9974C9.80902 16.9921 9.81298 15.2268 9.814 12.7365L6.66753 3.69048L6.66605 4.5465L6.65979 8.08241L6.36888 7.2616C6.08462 6.45959 5.89483 5.92322 4.75288 2.69435C4.56 2.14881 4.36695 1.60332 4.17375 1.05789L4.15301 1H1Z" fill="url(#paint1_radial_3218_10565)" style=""/>
<path d="M1 1L4.16757 9.97567V9.97162L4.41764 10.6792C5.80985 14.6186 6.55775 16.7307 6.56218 16.7351C6.56503 16.7381 6.77574 16.7508 7.03024 16.7634C7.80137 16.8017 8.75703 16.8836 9.48199 16.9737C9.64901 16.9945 9.79261 17.0051 9.80275 16.9975L6.6596 8.08084V8.08241L6.3687 7.2616C6.08444 6.45959 5.89465 5.92322 4.7527 2.69435C4.44557 1.82607 4.185 1.08978 4.17357 1.05789L4.15283 1H1Z" fill="#E50914" style="fill:#E50914;fill:color(display-p3 0.8980 0.0353 0.0784);fill-opacity:1;"/>
<defs>
<radialGradient id="paint0_radial_3218_10565" cx="0" cy="0" r="1" gradientUnits="userSpaceOnUse" gradientTransform="translate(427.069 434.9) scale(620.84 620.846)">
<stop style="stop-color:black;stop-opacity:1;"/>
<stop offset="1" stop-opacity="0" style="stop-color:none;stop-opacity:0;"/>
</radialGradient>
<radialGradient id="paint1_radial_3218_10565" cx="0" cy="0" r="1" gradientUnits="userSpaceOnUse" gradientTransform="translate(427.069 434.9) scale(620.84 620.846)">
<stop style="stop-color:black;stop-opacity:1;"/>
<stop offset="1" stop-opacity="0" style="stop-color:none;stop-opacity:0;"/>
</radialGradient>
</defs>
</svg>
