<svg width="12" height="24" viewBox="0 0 12 24" fill="none" xmlns="http://www.w3.org/2000/svg">
<g clip-path="url(#clip0_3218_10549)">
<path d="M58.1745 12.3454C58.1745 8.26217 56.1966 5.04022 52.4165 5.04022C48.6202 5.04022 46.3234 8.26228 46.3234 12.3136C46.3234 17.1145 49.0351 19.5389 52.9268 19.5389C54.8249 19.5389 56.2604 19.1083 57.345 18.5022V15.3121C56.2605 15.8545 55.0163 16.1895 53.4373 16.1895C51.8901 16.1895 50.5184 15.6471 50.343 13.765H58.1426C58.1426 13.5575 58.1745 12.7282 58.1745 12.3454ZM50.2951 10.8302C50.2951 9.02781 51.3957 8.27809 52.4006 8.27809C53.3735 8.27809 54.4103 9.02781 54.4103 10.8302H50.2951ZM40.1668 5.04022C38.6036 5.04022 37.5987 5.77391 37.0406 6.28441L36.8331 5.29548H33.3241V23.8932L37.3116 23.048L37.3277 18.5341C37.9019 18.9488 38.7471 19.5389 40.1508 19.5389C43.0059 19.5389 45.6058 17.2421 45.6058 12.1859C45.5898 7.56034 42.958 5.04022 40.1667 5.04022M39.2096 16.0299C38.2686 16.0299 37.7102 15.695 37.3275 15.2803L37.3115 9.36269C37.7262 8.90019 38.3004 8.58123 39.2096 8.58123C40.6611 8.58123 41.6659 10.2081 41.6659 12.2975C41.6659 14.4349 40.677 16.0299 39.2096 16.0299ZM27.8372 4.09918L31.8407 3.23787V0L27.8372 0.845383V4.09918ZM27.8372 5.3114H31.8407V19.2677H27.8372V5.3114ZM23.5467 6.49166L23.2915 5.3114H19.8462V19.2677H23.8338V9.80938C24.7748 8.58123 26.3699 8.80452 26.8643 8.97993V5.3114C26.3539 5.11996 24.4878 4.76905 23.5467 6.49166ZM15.5715 1.85024L11.6797 2.67959L11.6638 15.4557C11.6638 17.8164 13.4343 19.5548 15.795 19.5548C17.1028 19.5548 18.0598 19.3156 18.5861 19.0285V15.7907C18.0758 15.998 15.5556 16.7317 15.5556 14.3711V8.70875H18.5861V5.3114H15.5556L15.5715 1.85024ZM4.78927 9.36269C4.78927 8.74071 5.29966 8.50138 6.14516 8.50138C7.35727 8.50138 8.88845 8.86834 10.1007 9.52228V5.77391C8.77686 5.24759 7.46897 5.04022 6.14516 5.04022C2.90718 5.04022 0.753906 6.73099 0.753906 9.55424C0.753906 13.9563 6.81492 13.2546 6.81492 15.1527C6.81492 15.8863 6.17701 16.1256 5.28374 16.1256C3.95992 16.1256 2.26916 15.5833 0.929308 14.8496V18.6458C2.41271 19.2838 3.91204 19.5548 5.28374 19.5548C8.60135 19.5548 10.8822 17.9121 10.8822 15.057C10.8663 10.3038 4.78927 11.1491 4.78927 9.36269Z" fill="#635BFF" style="fill:#635BFF;fill:color(display-p3 0.3882 0.3569 1.0000);fill-opacity:1;"/>
</g>
<defs>
<clipPath id="clip0_3218_10549">
<rect width="10.5" height="24" fill="white" style="fill:white;fill-opacity:1;" transform="translate(0.75)"/>
</clipPath>
</defs>
</svg>
