<svg width="150" height="31" viewBox="0 0 150 31" fill="none" xmlns="http://www.w3.org/2000/svg">
<path d="M0 0.5H30.1161V31H0V0.5Z" fill="#FF5A00" style="fill:#FF5A00;fill:color(display-p3 1.0000 0.3529 0.0000);fill-opacity:1;"/>
<path d="M84.2218 6.53516C84.4798 6.53516 84.5443 6.85962 84.5443 7.1192C84.6088 8.1575 84.6733 9.1309 84.6733 10.1692C84.7377 11.1426 84.7377 12.116 84.7377 13.0894C85.3181 12.6352 85.8341 12.1809 86.4789 11.9862C87.5107 11.532 88.736 11.532 89.7678 12.0511C90.8641 12.6352 91.5735 13.6735 91.9604 14.7766C92.2829 15.8798 92.4119 17.0479 92.3474 18.1511C92.2184 19.5139 91.896 20.8118 91.1221 21.9149C90.6707 22.5639 90.0903 23.083 89.3164 23.3426C88.0911 23.7969 86.8014 23.6022 85.7051 22.9532C85.3826 22.7586 85.0602 22.4341 84.8022 22.1745C84.6733 22.5639 84.6088 22.9532 84.4798 23.3426C83.8994 23.3426 83.3835 23.4075 82.8031 23.2777C82.9966 22.3692 82.9966 21.3958 83.0611 20.4873C83.1255 17.1777 83.0611 13.8681 83.0611 10.6235C82.9966 9.32558 83.061 8.02771 82.8676 6.79473C83.2545 6.66494 83.7704 6.53516 84.2218 6.53516ZM88.4781 13.349C87.9622 13.2192 87.4463 13.2192 86.9948 13.2841C86.092 13.4139 85.3826 14.0628 84.8022 14.7118C84.8022 14.9064 84.8022 15.166 84.8022 15.3607V20.6171C84.8022 20.8118 84.9312 20.9415 85.0602 21.0064C85.963 21.85 87.2528 22.2394 88.4136 21.9798C88.994 21.85 89.5099 21.4607 89.7678 20.9415C90.2193 20.2277 90.3482 19.3841 90.4127 18.5405C90.4772 17.8915 90.5417 17.2426 90.4772 16.6586C90.4772 15.9447 90.2837 15.166 89.8968 14.5171C89.5744 13.8681 89.0585 13.4788 88.4781 13.349ZM95.8942 6.98941C96.2167 6.85962 96.6681 6.85962 96.9905 7.05431C97.313 7.24899 97.5709 7.57345 97.6999 7.89792C97.8934 8.67665 97.313 9.52026 96.5391 9.58516C95.9587 9.65005 95.3138 9.32558 95.1204 8.67665C94.8624 8.0926 95.2494 7.24899 95.8942 6.98941ZM42.5623 8.35218C43.4007 7.76814 44.4325 7.31388 45.4643 7.31388C46.5606 7.31388 47.6569 7.37877 48.6242 7.83303C49.0112 8.02771 49.3981 8.22239 49.785 8.48196C49.5271 8.93622 49.2046 9.26069 48.8822 9.65005C48.4953 9.45537 48.1083 9.19579 47.6569 9.00111C46.6251 8.61175 45.3998 8.54686 44.368 9.00111C43.4652 9.32558 42.7558 10.0394 42.3044 10.883C42.0464 11.532 41.7885 12.1809 41.6595 12.8298C41.5305 13.4788 41.5305 14.1277 41.466 14.7766C41.466 15.6203 41.4015 16.5288 41.466 17.3724C41.595 18.6054 42.0464 19.7735 42.8203 20.682C43.5297 21.5256 44.5615 21.9798 45.6578 22.1096C46.2382 22.1096 46.7541 22.1096 47.3345 21.9798C47.9794 21.85 48.5598 21.4607 49.2046 21.2011C49.5271 21.5256 49.8495 21.9798 50.172 22.3692C49.7206 22.6288 49.2691 22.8883 48.7532 23.083C47.4635 23.6022 45.9802 23.6671 44.626 23.4724C43.5942 23.2777 42.6913 22.7586 41.9175 22.1096C41.0146 21.3309 40.3697 20.2926 39.9828 19.1894C39.7248 18.4107 39.5959 17.632 39.5314 16.8532C39.5314 16.2692 39.4024 15.6852 39.5314 15.0362C39.5314 13.933 39.7248 12.7649 40.1763 11.7266C40.6277 10.4288 41.4015 9.19579 42.5623 8.35218Z" fill="#FF5A00" style="fill:#FF5A00;fill:color(display-p3 1.0000 0.3529 0.0000);fill-opacity:1;"/>
<path d="M8.8994 8.09284C9.02838 8.09284 9.15735 8.02794 9.28633 8.02794C9.93121 8.02794 10.5761 8.02794 11.221 8.09284C11.35 8.09284 11.35 8.15773 11.4144 8.22262C12.3818 10.2343 13.3491 12.3109 14.3809 14.3875C14.5744 14.8418 14.7678 15.2311 15.0258 15.6205C15.2193 15.296 15.4127 14.9716 15.6062 14.5822C16.7025 12.3758 17.7988 10.2343 18.8951 8.02794C19.6045 8.02794 20.3138 7.96305 21.0877 8.09284C20.9587 8.54709 20.7008 8.87156 20.5073 9.26092C19.0886 12.0513 17.6053 14.8418 16.1221 17.6322C16.0576 17.762 16.0576 17.8269 16.0576 17.9567C16.0576 19.9684 16.0576 21.9801 16.0576 23.9269C15.3482 23.9269 14.6389 23.9269 13.9295 23.9269C13.9295 21.9801 13.9295 20.0333 13.9295 18.0865C13.9295 17.8918 13.9295 17.6322 13.8005 17.4375C12.4463 14.9067 11.1565 12.3758 9.80224 9.78007C9.54428 9.26092 9.22184 8.67688 8.8994 8.09284Z" fill="#FFFEFE" style="fill:#FFFEFE;fill:color(display-p3 1.0000 0.9961 0.9961);fill-opacity:1;"/>
<path d="M125.236 9.00113C125.817 8.80645 126.397 8.67666 127.042 8.54688C126.913 9.65007 126.849 10.7533 126.849 11.9213C127.751 11.9213 128.719 11.9213 129.622 11.9862C129.493 12.4405 129.299 12.8299 129.106 13.2192C128.332 13.2192 127.558 13.2192 126.72 13.2192C126.72 14.2575 126.72 15.2958 126.72 16.3341C126.72 17.1128 126.784 17.9564 126.72 18.8001C126.72 19.7086 126.72 20.682 126.784 21.5905C126.784 21.9799 127.171 22.2394 127.494 22.3692C128.074 22.499 128.654 22.4341 129.235 22.3043C129.364 22.6288 129.428 23.0182 129.428 23.3426C128.912 23.6022 128.332 23.6671 127.751 23.732C126.978 23.732 126.075 23.6022 125.494 23.0182C125.043 22.5639 125.043 21.8501 124.978 21.266C124.914 19.9682 124.978 18.6054 124.914 17.3075C124.914 15.9447 124.914 14.6469 124.914 13.2841C124.398 13.2841 123.882 13.2841 123.431 13.2841C123.431 12.8299 123.431 12.3756 123.431 11.9862C123.947 11.9862 124.398 11.9862 124.914 11.9862C125.107 10.9479 125.107 9.90964 125.236 9.00113ZM56.8787 11.5969C57.3302 11.5969 57.8461 11.5969 58.2975 11.7267C59.3293 12.0511 60.2321 12.8299 60.7481 13.7384C61.1995 14.582 61.5219 15.4905 61.5864 16.4639C61.6509 17.7618 61.7154 19.0596 61.264 20.2926C60.877 21.4607 60.1032 22.499 59.0069 23.083C57.9106 23.6671 56.6208 23.732 55.46 23.4075C54.4282 23.1479 53.5254 22.4341 52.8805 21.5256C52.2356 20.5522 51.9776 19.3841 51.9776 18.1511C51.9776 17.0479 51.9131 15.8799 52.3001 14.7767C52.6225 13.7384 53.3319 12.765 54.2992 12.116C54.7506 11.8564 55.2021 11.5969 55.718 11.532C56.1049 11.5969 56.4918 11.5969 56.8787 11.5969ZM55.9759 13.0894C55.3955 13.2192 54.8151 13.6086 54.4927 14.1277C54.0413 14.9064 53.9123 15.815 53.9123 16.7235C53.8478 17.3724 53.9123 18.0213 53.9768 18.6703C54.1057 19.449 54.2347 20.2926 54.6217 21.0064C55.0086 21.7852 55.8469 22.1096 56.6853 22.1745C57.4591 22.2394 58.2975 22.0447 58.8779 21.3958C59.3293 20.8767 59.5873 20.2926 59.6518 19.5788C59.7807 18.7352 59.7807 17.8916 59.7162 17.1128C59.7162 16.2692 59.5873 15.3607 59.2648 14.5171C59.0714 13.9979 58.6844 13.6086 58.233 13.349C57.5236 12.9596 56.7498 12.8947 55.9759 13.0894ZM64.7463 11.9862C65.2622 11.7916 65.7782 11.6618 66.3585 11.5969C66.552 12.116 66.681 12.6352 66.7455 13.2192C67.1324 13.0245 67.3904 12.7001 67.7773 12.5054C68.5511 11.9213 69.5185 11.5969 70.4858 11.5969C70.6793 11.5969 70.9372 11.6618 71.1307 11.7916C71.4531 11.9862 71.7756 12.116 72.098 12.3756C72.356 12.6352 72.5494 13.0245 72.7429 13.349C73.1943 13.1543 73.5168 12.765 73.9037 12.5054C74.5486 12.0511 75.3224 11.6618 76.2253 11.5969C76.9991 11.532 77.773 11.7916 78.3534 12.3107C78.6113 12.5703 78.8693 12.8299 78.9983 13.1543C79.1272 13.4788 79.1917 13.8033 79.1917 14.1926C79.3207 16.0096 79.2562 17.8916 79.3207 19.7086C79.3207 20.9416 79.3207 22.1745 79.3207 23.4075C78.7403 23.4075 78.0954 23.4075 77.515 23.4075C77.515 21.5905 77.515 19.7086 77.515 17.8916C77.515 16.7235 77.515 15.5554 77.4505 14.3224C77.3861 13.933 77.1926 13.6086 76.8702 13.349C76.5477 13.1543 76.0963 13.1543 75.6449 13.1543C74.9355 13.2192 74.3551 13.6735 73.7747 14.1277C73.5168 14.3224 73.2588 14.582 73.0008 14.7767C72.9364 14.8416 72.9364 14.9713 72.9364 15.0362C72.9364 17.8267 72.9364 20.5522 72.9364 23.3426C72.356 23.3426 71.7111 23.3426 71.1307 23.3426V16.8533C71.1307 16.3341 71.1307 15.815 71.1307 15.2958C71.1307 14.7767 71.1307 14.1926 70.9372 13.7384C70.5503 13.2192 69.8409 13.0894 69.2605 13.2841C68.3577 13.4788 67.5838 14.0628 66.8745 14.7118C66.7455 14.7767 66.7455 14.9064 66.7455 15.0362C66.7455 17.8267 66.7455 20.6171 66.7455 23.4075C66.2296 23.4075 65.7137 23.4075 65.1978 23.4075C65.1333 20.5522 65.1978 17.6969 65.0688 14.8416C65.0688 14.1926 65.0688 13.5437 64.9398 12.8947C64.8753 12.5703 64.7463 12.2458 64.7463 11.9862ZM95.5073 11.9213C96.0877 11.8564 96.6681 11.7267 97.2485 11.5969C97.313 13.2192 97.313 14.8416 97.313 16.399C97.313 18.7352 97.313 21.0064 97.313 23.3426C96.7326 23.3426 96.0877 23.3426 95.5073 23.3426C95.5073 20.033 95.5073 16.7235 95.5073 13.4139C95.5073 12.9596 95.4428 12.3756 95.5073 11.9213ZM118.659 11.6618C119.884 11.8565 120.916 13.0245 120.98 14.3224C121.045 16.2043 120.98 18.1511 120.98 20.033V20.6171C120.98 21.0064 120.98 21.3958 121.109 21.7203C121.174 22.1096 121.561 22.3043 121.819 22.499C121.561 22.8235 121.367 23.2777 121.045 23.5373C120.851 23.732 120.593 23.5373 120.464 23.4075C120.013 23.083 119.755 22.6288 119.497 22.1096C119.11 22.3043 118.852 22.6937 118.401 22.8884C117.756 23.3426 116.982 23.5373 116.144 23.5373C115.434 23.5373 114.725 23.4075 114.08 23.083C113.048 22.499 112.468 21.3309 112.532 20.1628C112.532 19.0596 113.113 17.9564 113.951 17.3075C114.983 16.5288 116.337 16.2692 117.627 16.1394C118.207 16.0745 118.788 16.0745 119.432 16.0745C119.432 15.4905 119.432 14.9064 119.304 14.3224C119.239 13.8682 118.981 13.349 118.53 13.0894C118.014 12.8299 117.369 12.765 116.788 12.8947C115.692 13.0245 114.66 13.4788 113.758 14.1277C113.5 13.8033 113.242 13.4788 113.048 13.0894C112.919 12.8947 113.113 12.765 113.242 12.7001C114.467 12.0511 115.757 11.4671 117.175 11.4671H117.756C118.078 11.5969 118.336 11.5969 118.659 11.6618ZM117.885 17.4373C117.304 17.5022 116.788 17.5022 116.208 17.632C115.563 17.8267 114.983 18.216 114.596 18.8001C114.402 19.1245 114.402 19.5139 114.402 19.9033C114.402 20.2926 114.338 20.7469 114.531 21.1362C114.66 21.5256 114.983 21.915 115.37 22.0447C115.821 22.2394 116.337 22.2394 116.853 22.2394C117.433 22.1745 117.949 21.8501 118.401 21.4607C118.788 21.1362 119.175 20.7469 119.175 20.2277C119.239 19.3192 119.239 18.3458 119.239 17.4373C118.788 17.5022 118.336 17.3724 117.885 17.4373ZM137.489 11.7267C138.521 11.9862 139.424 12.6352 140.069 13.4788C140.585 14.1926 140.907 14.9713 141.036 15.815C141.165 16.5937 141.23 17.4373 141.165 18.2809C141.165 19.6437 140.714 20.9416 139.94 21.9799C139.295 22.8235 138.263 23.3426 137.296 23.5373C136.07 23.732 134.716 23.5373 133.62 22.7586C132.717 22.1096 132.137 21.0713 131.814 19.9682C131.621 19.3841 131.621 18.865 131.556 18.2809C131.556 17.3075 131.556 16.399 131.685 15.4256C131.943 14.3873 132.459 13.349 133.233 12.5703C133.813 11.9862 134.587 11.6618 135.361 11.532C136.135 11.532 136.844 11.5969 137.489 11.7267ZM135.555 13.0894C134.716 13.2192 134.007 13.8682 133.749 14.6469C133.426 15.4905 133.426 16.399 133.426 17.2426C133.426 18.0862 133.426 18.9299 133.62 19.7086C133.749 20.2926 133.878 20.8118 134.265 21.266C134.587 21.7203 135.168 21.9799 135.684 22.0447C135.877 22.1096 136.135 22.1096 136.328 22.1096H136.522H136.715C137.167 22.0447 137.554 21.915 137.941 21.7203C138.392 21.4607 138.715 21.0064 138.908 20.4873C139.101 19.9033 139.166 19.2543 139.23 18.6703C139.23 17.9564 139.295 17.2426 139.23 16.4639C139.166 15.6852 139.101 14.9065 138.715 14.2575C138.392 13.7384 137.941 13.349 137.36 13.0894C136.78 12.9596 136.135 12.9596 135.555 13.0894ZM144.261 12.0511C144.841 11.9213 145.357 11.7267 145.873 11.5969C146.195 12.1809 146.195 12.8299 146.26 13.4139C146.518 13.2192 146.776 12.9596 147.034 12.7001C147.807 11.9213 148.968 11.4671 150.064 11.6618V11.7916C149.807 12.3107 149.678 12.8947 149.42 13.4788C149.42 13.6086 149.226 13.5437 149.162 13.5437C148.71 13.5437 148.13 13.5437 147.743 13.8033C147.291 14.0628 146.969 14.3873 146.647 14.7767C146.324 15.166 146.389 15.6852 146.389 16.1394C146.389 16.7884 146.324 17.4373 146.389 18.0862C146.389 19.8384 146.389 21.6554 146.389 23.4075C145.808 23.4075 145.163 23.4075 144.583 23.4075C144.583 21.4607 144.583 19.449 144.583 17.5022C144.583 16.1394 144.583 14.8416 144.518 13.4788C144.454 12.9596 144.325 12.5054 144.261 12.0511ZM100.795 12.0511C101.311 11.8564 101.892 11.6618 102.408 11.6618C102.601 12.1809 102.73 12.765 102.794 13.2841C103.246 12.9596 103.697 12.5703 104.149 12.3107C105.116 11.7267 106.277 11.3373 107.309 11.7267C107.954 11.9213 108.534 12.3107 108.921 12.8947C109.243 13.2841 109.308 13.8682 109.372 14.3224C109.501 16.1394 109.437 17.8916 109.437 19.7086C109.437 20.9416 109.437 22.1096 109.437 23.2777C108.856 23.2777 108.212 23.2777 107.631 23.2777C107.631 21.3309 107.567 19.3192 107.567 17.3724C107.567 16.2692 107.567 15.166 107.438 14.0628C107.244 13.5437 106.793 13.0894 106.212 13.0894C105.825 13.0894 105.374 13.0894 104.987 13.2192C104.149 13.5437 103.375 14.0628 102.666 14.6469C102.666 17.5022 102.666 20.4224 102.666 23.2777C102.15 23.2777 101.634 23.2777 101.118 23.2777C101.118 21.6554 101.053 20.033 101.053 18.3458C101.053 16.6586 101.053 14.9713 100.924 13.2841C101.053 12.9596 100.924 12.5054 100.795 12.0511Z" fill="#FF5A00" style="fill:#FF5A00;fill:color(display-p3 1.0000 0.3529 0.0000);fill-opacity:1;"/>
</svg>
