<svg width="24" height="24" viewBox="0 0 24 24" fill="none" xmlns="http://www.w3.org/2000/svg">
<g clip-path="url(#clip0_3697_11303)">
<path d="M23.5801 6.13477V7.5752H22.1318V6.13477H23.5801Z" fill="white" stroke="white" style="fill:white;fill-opacity:1;stroke:white;stroke-opacity:1;" stroke-width="0.3"/>
<path d="M22.4321 7.27466V8.7229H20.9917V7.27466H22.4321Z" fill="white" stroke="white" style="fill:white;fill-opacity:1;stroke:white;stroke-opacity:1;" stroke-width="0.3"/>
<path d="M22.4321 4.99463V6.43506H20.9917V4.99463H22.4321Z" fill="white" stroke="white" style="fill:white;fill-opacity:1;stroke:white;stroke-opacity:1;" stroke-width="0.3"/>
<path d="M21.2925 6.13477V7.5752H19.8521V6.13477H21.2925Z" fill="white" stroke="white" style="fill:white;fill-opacity:1;stroke:white;stroke-opacity:1;" stroke-width="0.3"/>
<path d="M20.1523 17.5647V18.7053H21.292V20.1448H20.1523V21.2922H18.7051V20.1448H17.5645V18.7053H18.7051V17.5647H20.1523Z" fill="white" stroke="white" style="fill:white;fill-opacity:1;stroke:white;stroke-opacity:1;" stroke-width="0.3"/>
<path d="M20.1528 9.56226V12.1501H18.7046V9.56226H20.1528Z" fill="white" stroke="white" style="fill:white;fill-opacity:1;stroke:white;stroke-opacity:1;" stroke-width="0.3"/>
<path d="M19.0049 11.8496V13.29H17.5645V11.8496H19.0049Z" fill="white" stroke="white" style="fill:white;fill-opacity:1;stroke:white;stroke-opacity:1;" stroke-width="0.3"/>
<path d="M19.0049 2.70728V4.14771H17.5645V2.70728H19.0049Z" fill="white" stroke="white" style="fill:white;fill-opacity:1;stroke:white;stroke-opacity:1;" stroke-width="0.3"/>
<path d="M17.8652 12.9897V14.438H16.417V12.9897H17.8652Z" fill="white" stroke="white" style="fill:white;fill-opacity:1;stroke:white;stroke-opacity:1;" stroke-width="0.3"/>
<path d="M17.8652 3.84717V5.29541H16.417V3.84717H17.8652Z" fill="white" stroke="white" style="fill:white;fill-opacity:1;stroke:white;stroke-opacity:1;" stroke-width="0.3"/>
<path d="M16.7173 14.1372V15.5776H15.2769V14.1372H16.7173Z" fill="white" stroke="white" style="fill:white;fill-opacity:1;stroke:white;stroke-opacity:1;" stroke-width="0.3"/>
<path d="M16.7173 4.99463V6.43506H15.2769V4.99463H16.7173Z" fill="white" stroke="white" style="fill:white;fill-opacity:1;stroke:white;stroke-opacity:1;" stroke-width="0.3"/>
<path d="M15.5771 15.2771V16.7175H14.1367V15.2771H15.5771Z" fill="white" stroke="white" style="fill:white;fill-opacity:1;stroke:white;stroke-opacity:1;" stroke-width="0.3"/>
<path d="M15.5771 6.13477V7.5752H14.1367V6.13477H15.5771Z" fill="white" stroke="white" style="fill:white;fill-opacity:1;stroke:white;stroke-opacity:1;" stroke-width="0.3"/>
<path d="M14.4375 22.1321V23.5803H12.9893V22.1321H14.4375Z" fill="white" stroke="white" style="fill:white;fill-opacity:1;stroke:white;stroke-opacity:1;" stroke-width="0.3"/>
<path d="M14.4375 16.4172V17.8655H12.9893V16.4172H14.4375Z" fill="white" stroke="white" style="fill:white;fill-opacity:1;stroke:white;stroke-opacity:1;" stroke-width="0.3"/>
<path d="M14.4375 7.27466V8.42212H19.0049V9.86255H11.8496V8.42212H12.9902V7.27466H14.4375Z" fill="white" stroke="white" style="fill:white;fill-opacity:1;stroke:white;stroke-opacity:1;" stroke-width="0.3"/>
<path d="M13.29 17.5647V19.0051H11.8496V17.5647H13.29Z" fill="white" stroke="white" style="fill:white;fill-opacity:1;stroke:white;stroke-opacity:1;" stroke-width="0.3"/>
<path d="M20.1528 0.419678V3.00757H18.7046V1.86011H10.7095V0.419678H20.1528Z" fill="white" stroke="white" style="fill:white;fill-opacity:1;stroke:white;stroke-opacity:1;" stroke-width="0.3"/>
<path d="M12.1499 18.7046V20.145H10.7095V18.7046H12.1499Z" fill="white" stroke="white" style="fill:white;fill-opacity:1;stroke:white;stroke-opacity:1;" stroke-width="0.3"/>
<path d="M11.0103 19.8447V21.293H9.56201V19.8447H11.0103Z" fill="white" stroke="white" style="fill:white;fill-opacity:1;stroke:white;stroke-opacity:1;" stroke-width="0.3"/>
<path d="M11.0103 1.55957V3.00781H9.56201V1.55957H11.0103Z" fill="white" stroke="white" style="fill:white;fill-opacity:1;stroke:white;stroke-opacity:1;" stroke-width="0.3"/>
<path d="M9.8623 20.9922V22.4326H8.42188V20.9922H9.8623Z" fill="white" stroke="white" style="fill:white;fill-opacity:1;stroke:white;stroke-opacity:1;" stroke-width="0.3"/>
<path d="M9.8623 11.8496V15.5771H8.42285V13.29H2.70703V11.8496H9.8623Z" fill="white" stroke="white" style="fill:white;fill-opacity:1;stroke:white;stroke-opacity:1;" stroke-width="0.3"/>
<path d="M9.8623 2.70728V4.14771H8.42188V2.70728H9.8623Z" fill="white" stroke="white" style="fill:white;fill-opacity:1;stroke:white;stroke-opacity:1;" stroke-width="0.3"/>
<path d="M8.72266 22.1321V23.5803H7.27441V22.1321H8.72266Z" fill="white" stroke="white" style="fill:white;fill-opacity:1;stroke:white;stroke-opacity:1;" stroke-width="0.3"/>
<path d="M8.72266 15.2771V19.0046H7.27441V15.2771H8.72266Z" fill="white" stroke="white" style="fill:white;fill-opacity:1;stroke:white;stroke-opacity:1;" stroke-width="0.3"/>
<path d="M8.72266 3.84717V5.29541H7.27441V3.84717H8.72266Z" fill="white" stroke="white" style="fill:white;fill-opacity:1;stroke:white;stroke-opacity:1;" stroke-width="0.3"/>
<path d="M7.57471 18.7046V22.4321H6.13428V18.7046H7.57471Z" fill="white" stroke="white" style="fill:white;fill-opacity:1;stroke:white;stroke-opacity:1;" stroke-width="0.3"/>
<path d="M7.57471 4.99463V6.43506H6.13428V4.99463H7.57471Z" fill="white" stroke="white" style="fill:white;fill-opacity:1;stroke:white;stroke-opacity:1;" stroke-width="0.3"/>
<path d="M6.43506 6.13477V7.5752H4.99463V6.13477H6.43506Z" fill="white" stroke="white" style="fill:white;fill-opacity:1;stroke:white;stroke-opacity:1;" stroke-width="0.3"/>
<path d="M5.29541 7.27466V8.7229H3.84717V7.27466H5.29541Z" fill="white" stroke="white" style="fill:white;fill-opacity:1;stroke:white;stroke-opacity:1;" stroke-width="0.3"/>
<path d="M4.14746 16.4172V17.8655H2.70703V16.4172H4.14746Z" fill="white" stroke="white" style="fill:white;fill-opacity:1;stroke:white;stroke-opacity:1;" stroke-width="0.3"/>
<path d="M4.14746 8.42212V9.86255H2.70703V8.42212H4.14746Z" fill="white" stroke="white" style="fill:white;fill-opacity:1;stroke:white;stroke-opacity:1;" stroke-width="0.3"/>
<path d="M4.14697 0.419678V1.5603H5.29443V3.00757H4.14697V4.14722H2.70752V3.00757H1.56689V1.5603H2.70752V0.419678H4.14697Z" fill="white" stroke="white" style="fill:white;fill-opacity:1;stroke:white;stroke-opacity:1;" stroke-width="0.3"/>
<path d="M3.00732 17.5647V19.0051H1.56689V17.5647H3.00732Z" fill="white" stroke="white" style="fill:white;fill-opacity:1;stroke:white;stroke-opacity:1;" stroke-width="0.3"/>
<path d="M3.00732 15.2771V16.7175H1.56689V15.2771H3.00732Z" fill="white" stroke="white" style="fill:white;fill-opacity:1;stroke:white;stroke-opacity:1;" stroke-width="0.3"/>
<path d="M3.00732 9.56226V12.1501H1.56689V9.56226H3.00732Z" fill="white" stroke="white" style="fill:white;fill-opacity:1;stroke:white;stroke-opacity:1;" stroke-width="0.3"/>
<path d="M1.86768 16.4172V17.8655H0.419434V16.4172H1.86768Z" fill="white" stroke="white" style="fill:white;fill-opacity:1;stroke:white;stroke-opacity:1;" stroke-width="0.3"/>
</g>
<defs>
<clipPath id="clip0_3697_11303">
<rect width="24" height="24" fill="white" style="fill:white;fill-opacity:1;"/>
</clipPath>
</defs>
</svg>
